<mxfile host="6addfe87-e715-41b3-a57b-3e9bf72dd124" modified="2020-08-16T07:48:34.228Z" agent="5.0 (Macintosh; Intel Mac OS X 10_15_5) AppleWebKit/537.36 (KHTML, like Gecko) Code/1.48.0 Chrome/78.0.3904.130 Electron/7.3.2 Safari/537.36" etag="odHoak3CdLswQWMbThrx" version="13.1.3">
    <diagram id="6hGFLwfOUW9BJ-s0fimq" name="Page-1">
        <mxGraphModel dx="1062" dy="728" grid="1" gridSize="10" guides="1" tooltips="1" connect="1" arrows="1" fold="1" page="1" pageScale="1" pageWidth="827" pageHeight="1169" math="0" shadow="0">
            <root>
                <mxCell id="0"/>
                <mxCell id="1" parent="0"/>
                <mxCell id="2" value="" style="rounded=0;whiteSpace=wrap;html=1;" vertex="1" parent="1">
                    <mxGeometry x="120" y="320" width="460" height="370" as="geometry"/>
                </mxCell>
                <mxCell id="3" value="" style="outlineConnect=0;dashed=0;verticalLabelPosition=bottom;verticalAlign=top;align=center;html=1;shape=mxgraph.aws3.policy;fillColor=#5294CF;gradientColor=none;" vertex="1" parent="1">
                    <mxGeometry x="490" y="535" width="55.5" height="90" as="geometry"/>
                </mxCell>
                <mxCell id="4" style="edgeStyle=none;rounded=0;orthogonalLoop=1;jettySize=auto;html=1;startArrow=ERone;startFill=0;endArrow=ERone;endFill=0;" edge="1" parent="1" source="5" target="14">
                    <mxGeometry relative="1" as="geometry"/>
                </mxCell>
                <mxCell id="5" value="" style="html=1;dashed=0;whitespace=wrap;fillColor=#2875E2;strokeColor=#ffffff;points=[[0.005,0.63,0],[0.1,0.2,0],[0.9,0.2,0],[0.5,0,0],[0.995,0.63,0],[0.72,0.99,0],[0.5,1,0],[0.28,0.99,0]];shape=mxgraph.kubernetes.icon;prIcon=role" vertex="1" parent="1">
                    <mxGeometry x="140" y="571" width="50" height="48" as="geometry"/>
                </mxCell>
                <mxCell id="6" value="" style="group" vertex="1" connectable="0" parent="1">
                    <mxGeometry x="270" y="535" width="150" height="90" as="geometry"/>
                </mxCell>
                <mxCell id="7" value="" style="shape=internalStorage;whiteSpace=wrap;html=1;backgroundOutline=1;" vertex="1" parent="6">
                    <mxGeometry width="150" height="90" as="geometry"/>
                </mxCell>
                <mxCell id="8" value="role-policy attachment" style="text;html=1;align=center;verticalAlign=middle;resizable=0;points=[];autosize=1;" vertex="1" parent="6">
                    <mxGeometry x="20" width="130" height="20" as="geometry"/>
                </mxCell>
                <mxCell id="9" style="rounded=0;orthogonalLoop=1;jettySize=auto;html=1;entryX=0.9;entryY=0.2;entryDx=0;entryDy=0;entryPerimeter=0;endArrow=ERone;endFill=0;startArrow=ERmandOne;startFill=0;" edge="1" parent="1" source="7" target="5">
                    <mxGeometry relative="1" as="geometry"/>
                </mxCell>
                <mxCell id="10" style="edgeStyle=none;rounded=0;orthogonalLoop=1;jettySize=auto;html=1;exitX=1;exitY=0.5;exitDx=0;exitDy=0;startArrow=ERmandOne;startFill=0;endArrow=ERone;endFill=0;entryX=0;entryY=0.5;entryDx=0;entryDy=0;entryPerimeter=0;" edge="1" parent="1" source="7" target="3">
                    <mxGeometry relative="1" as="geometry">
                        <mxPoint x="480" y="555" as="targetPoint"/>
                    </mxGeometry>
                </mxCell>
                <mxCell id="11" value="task-exec-role-policy.json" style="text;html=1;align=center;verticalAlign=middle;resizable=0;points=[];autosize=1;" vertex="1" parent="1">
                    <mxGeometry x="430" y="625" width="150" height="20" as="geometry"/>
                </mxCell>
                <mxCell id="12" value="task-exec-role" style="text;html=1;align=center;verticalAlign=middle;resizable=0;points=[];autosize=1;" vertex="1" parent="1">
                    <mxGeometry x="120" y="625" width="90" height="20" as="geometry"/>
                </mxCell>
                <mxCell id="13" value="context: iam" style="text;html=1;align=center;verticalAlign=middle;resizable=0;points=[];autosize=1;" vertex="1" parent="1">
                    <mxGeometry x="500" y="320" width="80" height="20" as="geometry"/>
                </mxCell>
                <mxCell id="14" value="" style="pointerEvents=1;shadow=0;dashed=0;html=1;strokeColor=none;fillColor=#505050;labelPosition=center;verticalLabelPosition=bottom;verticalAlign=top;outlineConnect=0;align=center;shape=mxgraph.office.security.policy;direction=east;" vertex="1" parent="1">
                    <mxGeometry x="145.5" y="470" width="39" height="36" as="geometry"/>
                </mxCell>
                <mxCell id="15" value="asume role: principal 'ecs-tasks.amazonaws.com'" style="text;html=1;align=center;verticalAlign=middle;resizable=0;points=[];autosize=1;" vertex="1" parent="1">
                    <mxGeometry x="171" y="478" width="280" height="20" as="geometry"/>
                </mxCell>
                <mxCell id="22" style="edgeStyle=orthogonalEdgeStyle;rounded=0;orthogonalLoop=1;jettySize=auto;html=1;exitX=0.5;exitY=1;exitDx=0;exitDy=0;exitPerimeter=0;endArrow=ERone;endFill=0;startArrow=ERone;startFill=0;" edge="1" parent="1" source="21" target="14">
                    <mxGeometry relative="1" as="geometry"/>
                </mxCell>
                <mxCell id="21" value="" style="html=1;dashed=0;whitespace=wrap;fillColor=#2875E2;strokeColor=#ffffff;points=[[0.005,0.63,0],[0.1,0.2,0],[0.9,0.2,0],[0.5,0,0],[0.995,0.63,0],[0.72,0.99,0],[0.5,1,0],[0.28,0.99,0]];shape=mxgraph.kubernetes.icon;prIcon=role" vertex="1" parent="1">
                    <mxGeometry x="140" y="360" width="50" height="48" as="geometry"/>
                </mxCell>
                <mxCell id="23" value="app-iam-role" style="text;html=1;align=center;verticalAlign=middle;resizable=0;points=[];autosize=1;" vertex="1" parent="1">
                    <mxGeometry x="130" y="340" width="80" height="20" as="geometry"/>
                </mxCell>
                <mxCell id="24" value="(not yet have policies)" style="text;html=1;align=center;verticalAlign=middle;resizable=0;points=[];autosize=1;" vertex="1" parent="1">
                    <mxGeometry x="184.5" y="374" width="130" height="20" as="geometry"/>
                </mxCell>
            </root>
        </mxGraphModel>
    </diagram>
</mxfile>